# xmcd CD database file
# Copyright (C) 1997 Ti Kan
# 
# Track frame offsets:
#     225
#     15502
#     31520
#     44012
#     66670
#     81187
#     106700
#     126820
#     144937
#     168805
#     184920
# 
# Disc length: 2846 seconds
# 
# Revision: 1
# Processed by: cddbd v1.4b41PL1 Copyright (c) Steve Scherf et al.
# Submitted via: DiscPlay 4.0.4
# 
DISCID=890b1b0b
DTITLE=Louis Armstrong - Live and At His best
DYEAR=1900
DGENRE=
TTITLE0=Mack The knife
TTITLE1=C'est Si Bon
TTITLE2=When It's Sleepy Time Down South
TTITLE3=La Vie En Rose
TTITLE4=The Bucket's Got A Hole In It
TTITLE5=Give Me A Kiss To Build A Dream On
TTITLE6=Indiana
TTITLE7=Ole Miss Blues
TTITLE8=The Faithful Hussar
TTITLE9=After You've Gone
TTITLE10=New Orleans Function: Free As A Bird
EXTD=
EXTT0=
EXTT1=
EXTT2=
EXTT3=
EXTT4=
EXTT5=
EXTT6=
EXTT7=
EXTT8=
EXTT9=
EXTT10=
PLAYORDER=
